# xmcd
#
# Track frame offsets: 
#        150
#        27015
#        48075
#        71103
#        85766
#        96844
#        111220
#        122874
#        136166
#
# Disc length: 1990 seconds
#
# Revision: 0
# Processed by: cddbd v1.5.2PL0 Copyright (c) Steve Scherf et al.
# Submitted via: ExactAudioCopy v0.99pb4
#
DISCID=7107c409
DTITLE=Various Artist - Free Angela
DYEAR=1971
DGENRE=Jazz
TTITLE0=Larry Saunders - Free Angela
TTITLE1=Larry Saunders - This World
TTITLE2=Nitroglycerine - Old Uncle Tom is Dead
TTITLE3=Larry Saunders - Where Did Peace Go?
TTITLE4=Dickie Wonder - Nobody Knows
TTITLE5=Brother Love - I Can Be
TTITLE6=Tyrone Thomas - Baby Can't You See
TTITLE7=Judd Watkins - Paradise
TTITLE8=Soul Encyclopedia - Geraldine Jones
EXTD=
EXTT0=
EXTT1=
EXTT2=
EXTT3=
EXTT4=
EXTT5=
EXTT6=
EXTT7=
EXTT8=
PLAYORDER=
